<svg xmlns="http://www.w3.org/2000/svg" style="display: none;">

    <svg id="link" viewBox="0 0 500 500">
        <title>Link</title>
        <polygon class="cls-1" points="264.43 459 36.61 459 36.61 41 264.43 41 264.43 91 86.61 91 86.61 409 264.43 409 264.43 459"/>
        <polygon class="cls-1" points="471.28 250 338 123.22 338 215 162 215 162 285 338 285 338 376.78 471.28 250"/>
    </svg>

    <symbol id="svgITPC" viewBox="0 0 1200 600">
        <!-- <title>ABB - logo</title> -->
        <g class="">
            <path d="M447.5,270.8q0-60.4,0-120.8c0-13.3,9.4-22.8,22.7-22.8,61.7,0,123.5-1.1,185.2.4,46.8,1.1,88.9,15.9,121.2,52a143.3,143.3,0,0,1,35.2,75.5,248.5,248.5,0,0,1,3,44.5c-1.3,41-10.8,79.6-36.8,112.6-23.8,30.1-54.5,48.8-92.3,55.3a242.8,242.8,0,0,1-37.4,3c-32.5.4-65.1,0.3-97.6,0-5.2,0-6.5,1.6-6.5,6.6,0.2,32,.1,64.1.1,96.1,0,13.8-9.6,23.2-23.5,23.2-16.4,0-32.9-.2-49.3.1-13.1.2-24.5-10.1-24.2-23.8,0.6-31.9.1-63.8,0.3-95.6,0-5-1.3-6.6-6.5-6.6-48.3.2-96.6,0.6-145,0-41.1-.5-74.1-28-84.1-56.9-3.4-9.8-5.8-20.5-6-30.9-0.9-58.4-.9-116.7-1.3-175.1,0-1.8-.1-3.7,0-5.5s-1.3-4.4-4.5-4.3c-10.9.1-21.8,0.1-32.7,0-15.3,0-24.3-9.1-24.3-24.4,0-8.1.4-16.1-.1-24.2-0.8-12.6,10.8-22.1,21.9-22s22.5-.2,33.7.1c4.6,0.1,6.1-1.4,6.1-6-0.2-30.5.3-61.1-.3-91.6C204.5,17.5,214,5.4,228.4,6.1c16.1,0.7,32.2.1,48.3,0.2,14,0.1,23,9.1,23,22.9q0,45,0,90.1c0,7.9,0,7.9,8.1,7.9h62.9c13.9,0,23.4,9.2,23.7,23.2,0.2,7.9-.4,15.8.1,23.7,0.9,14.4-11.3,23.9-24.1,23.8-21.5-.2-43,0.1-64.4-0.1-4.7,0-6.4,1.2-6.4,6.2,0.2,50.8,0,101.7.1,152.5,0,20,12.3,36.7,30,41.1a53,53,0,0,0,12.4,1.6c33.2,0.1,66.4,0,99.7.2,4.8,0,5.9-1.6,5.9-6C447.5,352.4,447.5,311.6,447.5,270.8Zm96.8,27.3c0,31.7.1,63.4-.1,95.1,0,4.6,1.4,6,6,5.9,20.8-.2,41.6,0,62.4-0.1,8.2-.1,16.5.1,24.5-1,33.2-4.6,56-23.2,69.9-53.1,8.1-17.4,10.1-36,9.3-55-0.6-14.9-3.9-29.3-11.5-42.2-19.7-33.8-50.1-49.7-88.5-50.8-21.8-.6-43.6-0.1-65.4-0.1-6.6,0-6.7,0-6.7,6.8Q544.3,250.9,544.3,298.1Z"/>
            <path d="M1099.2,127.2h70.4c14.6,0,23.3,8.9,23.3,23.5,0,10.4-.6,20.8.1,31.2,1,15.4-12.1,23.9-24,23.9-37.4-.1-74.8.3-112.3-0.1-29.3-.3-52.5,11.5-71.3,33.2-16.6,19.2-24.8,41.5-24.3,66.9,0.9,46,35.1,84.4,73.7,90.6a119.7,119.7,0,0,0,18.5,1.6c38.4,0.1,76.9.1,115.3,0.1,15.5,0,24.2,8.7,24.2,24.3,0,8.7,0,17.5,0,26.2-0.1,12.1-9.4,22-21.5,22-47.7.1-95.3,0.9-143-.2-34.9-.8-68.5-8.7-98.2-28.4-38.7-25.5-61.6-61.4-68.7-107.1-2-13-3.4-26.4-2.9-39.5,2.8-69,32.6-121.3,96.4-151.6a158.6,158.6,0,0,1,63.7-15.4c26.8-.8,50.6-0.2,80.6-0.2v-1Z"/>
            <path d="M106.3,298.9c0,49.3-.3,98.6.2,147.9a23.4,23.4,0,0,1-23.7,23.8H33.3c-14.9,0-26.1-9.7-26.1-24.7V152c0-15.6,10.8-24.8,26.3-24.8H82.1c14.1,0,23.8,9.3,23.8,23.3C105.9,199.9,106.3,249.4,106.3,298.9Z"/>
            <path d="M47.2,86.1s-11.4.1-20,0C14.8,85.9,8.1,76.6,7.8,64.2S9.1,40.4,9.2,28.5,19.6,6.3,32.4,6.3c17.1-.1,34.5-0.1,51.6,0,12.9,0.1,22.1,9.4,22.2,22.4s0.1,23.8.1,35.7S91.5,85.8,79.5,86c-8.9.2-24.3,0-32.3,0h0Z"/>
        </g>
    </symbol>

</svg>

<svg xmlns="http://www.w3.org/2000/svg" style="display: none;">
  
    <symbol id="svgAbb" viewBox="0 0 2649.1 1102.2">
        <!-- <title>ABB - logo</title> -->
        <g class="c-red">
            <polygon class="cls-1" points="542.2 533.2 542.2 62 667.9 62 832.8 533.2 542.2 533.2"/>
            <polygon class="cls-1" points="502.9 533.2 502.9 62 377.3 62 212.4 533.2 502.9 533.2"/>
            <polygon class="cls-1" points="542.2 572.5 542.2 843.4 695.4 843.4 766 1043.7 1013.4 1043.7 848.5 572.5 542.2 572.5"/>
            <polygon class="cls-1" points="502.9 572.5 196.7 572.5 31.7 1043.7 279.1 1043.7 349.8 843.4 502.9 843.4 502.9 572.5"/>
            <rect class="cls-1" x="1092" y="62" width="314.1" height="471.22"/>
            <path class="cls-1" d="M1739.9,533.2c-31.4-43.2-74.6-74.6-125.7-98.2,51-39.3,82.5-98.2,82.5-164.9,0-113.9-94.2-208.1-208.1-208.1h-43.2V533.2h294.5Z"/>
            <rect class="cls-1" x="1092" y="572.5" width="314.1" height="471.22"/>
            <path class="cls-1" d="M1763.5,572.5H1445.4v471.2h43.2c176.7,0,318.1-141.4,318.1-318.1C1806.7,670.6,1791,619.6,1763.5,572.5Z"/>
            <rect class="cls-1" x="1916.6" y="62" width="314.1" height="471.22"/>
            <path class="cls-1" d="M2564.6,533.2c-31.4-43.2-74.6-74.6-125.7-98.2,51-39.3,82.5-98.2,82.5-164.9,0-113.9-94.2-208.1-208.1-208.1H2270V533.2h294.5Z"/>
            <rect class="cls-1" x="1916.6" y="572.5" width="314.1" height="471.22"/>
            <path class="cls-1" d="M2588.1,572.5H2270v471.2h43.2c176.7,0,318.1-141.4,318.1-318.1C2631.3,670.6,2615.6,619.6,2588.1,572.5Z"/>
        </g>
    </symbol>

    <symbol id="svgITPC" viewBox="0 0 1200 600">
        <!-- <title>ABB - logo</title> -->
        <g class="">
            <path d="M447.5,270.8q0-60.4,0-120.8c0-13.3,9.4-22.8,22.7-22.8,61.7,0,123.5-1.1,185.2.4,46.8,1.1,88.9,15.9,121.2,52a143.3,143.3,0,0,1,35.2,75.5,248.5,248.5,0,0,1,3,44.5c-1.3,41-10.8,79.6-36.8,112.6-23.8,30.1-54.5,48.8-92.3,55.3a242.8,242.8,0,0,1-37.4,3c-32.5.4-65.1,0.3-97.6,0-5.2,0-6.5,1.6-6.5,6.6,0.2,32,.1,64.1.1,96.1,0,13.8-9.6,23.2-23.5,23.2-16.4,0-32.9-.2-49.3.1-13.1.2-24.5-10.1-24.2-23.8,0.6-31.9.1-63.8,0.3-95.6,0-5-1.3-6.6-6.5-6.6-48.3.2-96.6,0.6-145,0-41.1-.5-74.1-28-84.1-56.9-3.4-9.8-5.8-20.5-6-30.9-0.9-58.4-.9-116.7-1.3-175.1,0-1.8-.1-3.7,0-5.5s-1.3-4.4-4.5-4.3c-10.9.1-21.8,0.1-32.7,0-15.3,0-24.3-9.1-24.3-24.4,0-8.1.4-16.1-.1-24.2-0.8-12.6,10.8-22.1,21.9-22s22.5-.2,33.7.1c4.6,0.1,6.1-1.4,6.1-6-0.2-30.5.3-61.1-.3-91.6C204.5,17.5,214,5.4,228.4,6.1c16.1,0.7,32.2.1,48.3,0.2,14,0.1,23,9.1,23,22.9q0,45,0,90.1c0,7.9,0,7.9,8.1,7.9h62.9c13.9,0,23.4,9.2,23.7,23.2,0.2,7.9-.4,15.8.1,23.7,0.9,14.4-11.3,23.9-24.1,23.8-21.5-.2-43,0.1-64.4-0.1-4.7,0-6.4,1.2-6.4,6.2,0.2,50.8,0,101.7.1,152.5,0,20,12.3,36.7,30,41.1a53,53,0,0,0,12.4,1.6c33.2,0.1,66.4,0,99.7.2,4.8,0,5.9-1.6,5.9-6C447.5,352.4,447.5,311.6,447.5,270.8Zm96.8,27.3c0,31.7.1,63.4-.1,95.1,0,4.6,1.4,6,6,5.9,20.8-.2,41.6,0,62.4-0.1,8.2-.1,16.5.1,24.5-1,33.2-4.6,56-23.2,69.9-53.1,8.1-17.4,10.1-36,9.3-55-0.6-14.9-3.9-29.3-11.5-42.2-19.7-33.8-50.1-49.7-88.5-50.8-21.8-.6-43.6-0.1-65.4-0.1-6.6,0-6.7,0-6.7,6.8Q544.3,250.9,544.3,298.1Z"/>
            <path d="M1099.2,127.2h70.4c14.6,0,23.3,8.9,23.3,23.5,0,10.4-.6,20.8.1,31.2,1,15.4-12.1,23.9-24,23.9-37.4-.1-74.8.3-112.3-0.1-29.3-.3-52.5,11.5-71.3,33.2-16.6,19.2-24.8,41.5-24.3,66.9,0.9,46,35.1,84.4,73.7,90.6a119.7,119.7,0,0,0,18.5,1.6c38.4,0.1,76.9.1,115.3,0.1,15.5,0,24.2,8.7,24.2,24.3,0,8.7,0,17.5,0,26.2-0.1,12.1-9.4,22-21.5,22-47.7.1-95.3,0.9-143-.2-34.9-.8-68.5-8.7-98.2-28.4-38.7-25.5-61.6-61.4-68.7-107.1-2-13-3.4-26.4-2.9-39.5,2.8-69,32.6-121.3,96.4-151.6a158.6,158.6,0,0,1,63.7-15.4c26.8-.8,50.6-0.2,80.6-0.2v-1Z"/>
            <path d="M106.3,298.9c0,49.3-.3,98.6.2,147.9a23.4,23.4,0,0,1-23.7,23.8H33.3c-14.9,0-26.1-9.7-26.1-24.7V152c0-15.6,10.8-24.8,26.3-24.8H82.1c14.1,0,23.8,9.3,23.8,23.3C105.9,199.9,106.3,249.4,106.3,298.9Z"/>
            <path d="M47.2,86.1s-11.4.1-20,0C14.8,85.9,8.1,76.6,7.8,64.2S9.1,40.4,9.2,28.5,19.6,6.3,32.4,6.3c17.1-.1,34.5-0.1,51.6,0,12.9,0.1,22.1,9.4,22.2,22.4s0.1,23.8.1,35.7S91.5,85.8,79.5,86c-8.9.2-24.3,0-32.3,0h0Z"/>
        </g>
    </symbol>

    <symbol id="svgCheckbox" viewBox="0 0 1077.5 1077.5">
        <!-- <title>Checkbox</title> -->
        <path class="cls-1" d="M920.3,988.7H92.8V161.3H920.3V988.7Zm-714.5-113H807.3V274.3H205.8V875.7Z"/>
    </symbol>

    <symbol id="svgCheckboxChecked" viewBox="0 0 1077.5 1077.5">
        <!-- <title>Checkbox Checked</title> -->
        <polygon class="cls-1" points="512.2 762.9 260.1 506.7 341.3 426.7 511.9 600 947.8 153.5 1029.4 233.2 512.2 762.9"/>
        <polygon class="cls-1" points="806.5 508.9 806.5 875 204.5 875 204.5 273 784.9 273 895.2 160 91.5 160 91.5 988 919.5 988 919.5 393.2 806.5 508.9"/>
    </symbol>
  
    <symbol id="svgClose" viewBox="0 0 1077.5 1077.5">
        <!-- <title>Close</title> -->
        <path class="cls-1" d="M589.9,541.5l428.2-428.2a32.5,32.5,0,0,0-46-46L544,495.5,115.8,67.3a32.5,32.5,0,0,0-46,46L498,541.5,69.8,969.6a32.5,32.5,0,1,0,46,46L544,587.4l428.2,428.2a32.5,32.5,0,0,0,46-46Z"/>
    </symbol>

    <symbol id="svgDocument" viewBox="0 0 1077.5 1077.5">
        <!-- <title>Document</title> -->
        <g>
            <path class="cls-1" d="M749.9,867H353a25,25,0,0,1,0-50H749.9A25,25,0,0,1,749.9,867Z"/>
            <path class="cls-1" d="M749.9,751.8H353a25,25,0,0,1,0-50H749.9A25,25,0,0,1,749.9,751.8Z"/>
            <path class="cls-1" d="M749.9,636.5H353a25,25,0,1,1,0-50H749.9A25,25,0,1,1,749.9,636.5Z"/>
            <path class="cls-1" d="M749.9,521.3H353a25,25,0,1,1,0-50H749.9A25,25,0,1,1,749.9,521.3Z"/>
            <path class="cls-1" d="M522.2,406.1H353a25,25,0,0,1,0-50H522.2A25,25,0,0,1,522.2,406.1Z"/>
        </g>
        <path class="cls-1" d="M857.4,282.7c-20.2-25.1-48.3-54.8-79.1-83.6s-61.9-54.9-88.5-73.9C643.8,92.3,622.4,88,609,88H326.4C257.7,88,202,144.1,202,212.8V883.6A124.4,124.4,0,0,0,326.4,1008H773c68.7,0,125-55.7,125-124.4V362.8C898,348.9,893.2,327.2,857.4,282.7ZM828,883.6c0,30.1-24.9,54.4-55,54.4H326.4A54.3,54.3,0,0,1,272,883.6V212.8c0-30.1,24.3-54.8,54.4-54.8H607.7l0.9,0.4c-0.5,5.7-.6,11.6-0.6,17.2V303.9c0,28.8,24.5,52.1,53.3,52.1H810.7c3.9,0,8.4-.1,12.7-0.4,2.8,4.9,3.6,7.8,4.6,8.9v519Z"/>
    </symbol>

    <symbol id="svgEdit" viewBox="0 0 1077.5 1077.5">
        <!-- <title>Edit</title> -->
        <polygon class="cls-1" points="807 436.5 807 876 206 876 206 274 669.8 274 782.8 161 93 161 93 989 920 989 920 323.5 807 436.5"/>
        <path class="cls-1" d="M1027.7,170.8c-5.6-63.2-40.1-98.5-104.6-104.6l-70.3,70.3h0l29.9,29.9,74.7,74.7Z"/>
        <polygon class="cls-1" points="934.7 263.8 830.1 159.2 830.1 159.2 331 658.3 318.4 773.3 435.6 762.9 934.7 263.8 934.7 263.8"/>
    </symbol>

    <symbol id="svgRadio" viewBox="0 0 1077.5 1077.5">
        <!-- <title>Radio</title> -->
        <path class="cls-1" d="M551.5,189.1a349.9,349.9,0,1,1-136.7,27.6,349.1,349.1,0,0,1,136.7-27.6m0-112h0C295.6,77.1,88.1,284.6,88.1,540.5h0c0,255.9,207.5,463.4,463.4,463.4h0c255.9,0,463.4-207.5,463.4-463.4h0c0-255.9-207.5-463.4-463.4-463.4h0Z"/>
    </symbol>

    <symbol id="svgRadioSelected" viewBox="0 0 1077.5 1077.5">
        <!-- <title>Radio Selected</title> -->
        <path class="cls-1" d="M551,189.6a349.9,349.9,0,1,1-136.7,27.6A349.1,349.1,0,0,1,551,189.6m0-112h0C295.1,77.6,87.7,285.1,87.7,541h0c0,255.9,207.5,463.4,463.4,463.4h0c255.9,0,463.4-207.5,463.4-463.4h0c0-255.9-207.5-463.4-463.4-463.4h0Z"/>
        <circle class="cls-1" cx="551.7" cy="544" r="194.7"/>
    </symbol>

    <symbol id="svgTrash" viewBox="0 0 1077.5 1077.5">
        <!-- <title>Trash</title> -->
        <g>
            <path class="cls-1" d="M713.4,860.7a25,25,0,0,1-25-25V438.8a25,25,0,0,1,50,0V835.7A25,25,0,0,1,713.4,860.7Z"/>
            <path class="cls-1" d="M551.5,860.7a25,25,0,0,1-25-25V438.8a25,25,0,0,1,50,0V835.7A25,25,0,0,1,551.5,860.7Z"/>
            <path class="cls-1" d="M389.5,860.7a25,25,0,0,1-25-25V438.8a25,25,0,0,1,50,0V835.7A25,25,0,0,1,389.5,860.7Z"/>
        </g>
        <path class="cls-1" d="M946.5,253H733V151.6A44.6,44.6,0,0,0,688.5,107H411.1A44.2,44.2,0,0,0,367,151.6V253H142.7a42,42,0,0,0,0,84H202V884.1C202,953,257.8,1009,326.4,1009H773A125.5,125.5,0,0,0,898,884.1V337h48.5A42,42,0,0,0,946.5,253ZM432,172H668v78H432V172ZM828,884.1c0,29.8-25.2,54.9-55,54.9H326.4c-30,0-54.4-24.6-54.4-54.9V338H828V884.1Z"/>
    </symbol>

    <symbol id="svgAttention" viewBox="0 0 1077.5 1077.5">
        <!-- <title>Attention</title> -->
        <path class="cls-1" d="M538.8,1062.6A520.5,520.5,0,0,1,336.2,62.7a520.5,520.5,0,0,1,405.1,959A517.2,517.2,0,0,1,538.8,1062.6Zm0-990.8c-259.4,0-470.4,211-470.4,470.4s211,470.4,470.4,470.4,470.4-211,470.4-470.4S798.1,71.8,538.8,71.8Z"/>
        <circle class="cls-1" cx="538.8" cy="911.2" r="29.6"/>
        <path class="cls-1" d="M538.8,791.9a25,25,0,0,1-25-25V186.2a25,25,0,1,1,50,0V766.9A25,25,0,0,1,538.8,791.9Z"/>
    </symbol>

    <symbol id="svgUser" viewBox="0 0 1077.5 1077.5">
        <!-- <title>User</title> -->
        <path class="cls-1" d="M924.8,861.7c-48.9-35-106.3-52.7-160.8-76.5A448.5,448.5,0,0,1,699,750.6c-24.8-16.1-40.1-38.7-38.3-70.7,1.3-22.6-.2-45.3-0.1-68,0-3.6.9-8.3,3.2-10.7,28.6-29.9,41.7-67,49.9-106.4,1.4-6.8,2.7-11.9,10.6-13.5,3.6-.7,7-3.7,9.9-6.4,26.6-23.8,31-79.8,9-107.9-2-2.6-1.8-8-.8-11.5,13.9-48.4,23.8-97.5,21.1-148a269.3,269.3,0,0,0-11.2-64.2c-13.4-43.4-43.8-69.9-88.5-79.3-7.7-1.6-13.3-4.4-18.5-11-12.6-16-30.7-24.1-50-28.1-60.1-12.6-119-7.5-174.6,19-58.4,27.9-85.3,78.4-93.4,140.4-7.6,57.7,1.4,114.1,14.9,170.1,1.5,6.4,2.2,11.4-3.9,15.6-1.6,1.1-2.7,2.9-3.8,4.6-21.1,30.1-4.4,92.4,28.6,108.4,3.1,1.5,5.7,6.2,6.5,9.8,8.6,40.6,22.6,78.5,52.5,108.9a11.3,11.3,0,0,1,2.7,7.3c-0.1,26.6-.8,53.3-0.7,79.9,0.1,22.7-10.4,40.3-27.4,53.1a330.1,330.1,0,0,1-54.5,33.6c-25.7,12.4-53,21.5-79,33.2-35.4,15.9-70.2,33-107.1,50.4-23.3,11.6-21.4,44.4,0,61.4a605.5,605.5,0,0,0,228.5,117.6c36.2,9.7,74.1,12.8,111.1,19.2,3.5,0.6,6.9,1.6,10.4,1.6h71.6c22-2,44.2-4.4,65.9-8.5q163.7-31.2,280.5-126.3C946.6,905.2,938.5,870.5,924.8,861.7Z"/>
    </symbol>

    <symbol id="svgCaret" viewBox="0 0 1077.5 1077.5">
        <!-- <title>Caret</title> -->
        <path class="cls-1" d="M537.9,798.1a24.9,24.9,0,0,1-17.7-7.3L53.3,323.8a25,25,0,1,1,35.4-35.4L537.9,737.7,988.9,286.8a25,25,0,1,1,35.4,35.4L555.6,790.7A24.9,24.9,0,0,1,537.9,798.1Z"/>
    </symbol>

    <symbol id="svgAddRecord" viewBox="0 0 1077.5 1077.5">
        <!-- <title>Add Record</title> -->
        <path class="cls-1" d="M859.5,277.6c-20.2-25.1-48.2-54.8-79-83.6s-61.9-54.9-88.5-73.8C646.1,87.3,624.7,83,611.3,83H328.7C260,83,204,139,204,207.7V878.5c0,68.7,56,124.5,124.7,124.5H775.3C844,1003,900,947.2,900,878.5V357.7C900,343.8,895.4,322.1,859.5,277.6ZM830,878.5A54.7,54.7,0,0,1,775.3,933H328.7A54.7,54.7,0,0,1,274,878.5V207.7A54.9,54.9,0,0,1,328.7,153H610a4.7,4.7,0,0,1,.7.3c-0.5,5.7-.8,11.5-0.8,17.1V298.8c0,28.8,24.9,52.2,53.7,52.2H813c3.9,0,8.2-.2,12.6-0.4,2.8,4.9,3.4,7.7,4.4,8.9v519Z"/>
        <polygon class="cls-1" points="701 610 584 610 584 493 515 493 515 610 397 610 397 679 515 679 515 796 584 796 584 679 701 679 701 610"/>
    </symbol>

    <symbol id="svgPlus" viewBox="0 0 1077.5 1077.5">
        <!-- <title>Plus</title> -->
        <polygon class="cls-1" points="890.5 459.5 619.5 459.5 619.5 187.5 459.5 187.5 459.5 459.5 186.5 459.5 186.5 618.5 459.5 618.5 459.5 890.5 619.5 890.5 619.5 618.5 890.5 618.5 890.5 459.5"/>
    </symbol>

    

    <symbol id="svgSortMinMax" viewBox="0 0 1077.5 1077.5">
        <!-- <title>Sort Min to Max</title> -->
        <polygon class="cls-1" points="368 836 368 51 278 51 278 836 136.1 836 278 989.2 278 994 281.9 994 325.7 1041.4 367.4 994 368 994 368 993.4 506.5 836 368 836"/>
        <rect class="cls-1" x="559.1" y="871.5" width="451.1" height="150"/>
        <rect class="cls-1" x="559.1" y="605.8" width="338.4" height="150"/>
        <rect class="cls-1" x="559.1" y="340.2" width="225.7" height="150"/>
        <rect class="cls-1" x="559.1" y="74.5" width="113" height="150"/>
    </symbol>

    <symbol id="svgSignIn" viewBox="0 0 1077.5 1077.5">
        <!-- <title>Sign in</title> -->
        <path class="cls-1" d="M839.6,71H701v88H839.6c32.3,0,59.4,25.9,59.4,58.2V892.5c0,32.3-27.1,58.5-59.4,58.5H701v88H839.6c80.8,0,147.4-65.7,147.4-146.5V217.2C987,136.4,920.4,71,839.6,71Z"/>
        <polygon class="cls-1" points="527.3 262.3 465.1 324.1 643.3 502 93 502 93 590 645.6 590 459.6 776.3 521.9 838.7 812.9 547.8 527.3 262.3"/>
    </symbol>

    <symbol id="svgSignOut" viewBox="0 0 1077.5 1077.5">
        <!-- <title>Sign Out</title> -->
        <path class="cls-1" d="M838.6,72.5H700.5v88H838.6c32.3,0,59.9,25.4,59.9,57.7V893.5c0,32.3-27.6,59.1-59.9,59.1H700.5v88H838.6c80.8,0,147.9-66.3,147.9-147.1V218.2C986.5,137.4,919.4,72.5,838.6,72.5Z"/>
        <polygon class="cls-1" points="378 262.7 440.2 324.6 262 502.5 813.5 502.5 813.5 590.5 259.7 590.5 445.7 776.8 383.4 839.1 92.4 548.2 378 262.7"/>
    </symbol>

    

    

    <symbol id="svgListEmpty" viewBox="0 0 1077.5 1077.5">
        <!-- <title>List Empty</title> -->
        <circle class="cls-1" cx="189.3" cy="737.1" r="51.7"/>
        <circle class="cls-1" cx="189.3" cy="547.5" r="51.7"/>
        <circle class="cls-1" cx="189.3" cy="358" r="51.7"/>
        <circle class="cls-1" cx="189.3" cy="168.4" r="51.7"/>
        <path class="cls-1" d="M918.2,885.5H395.5l-46.6,53.6a40,40,0,0,0,37.6,26.4H918.2A40,40,0,0,0,918.2,885.5Z"/>
        <path class="cls-1" d="M918.2,694.5H561.9l-69.6,80H918.2A40,40,0,0,0,918.2,694.5Z"/>
        <g>
            <path class="cls-1" d="M386.5,582.5h7.1l69.6-80H386.5A40,40,0,1,0,386.5,582.5Z"/>
            <path class="cls-1" d="M918.2,502.5H728.4l-69.6,80H918.2A40,40,0,0,0,918.2,502.5Z"/>
        </g>
        <g>
            <path class="cls-1" d="M918.2,311.5H894.8l-69.6,80h93.1A40,40,0,0,0,918.2,311.5Z"/>
            <path class="cls-1" d="M386.5,391.5H560l69.6-80H386.5A40,40,0,1,0,386.5,391.5Z"/>
        </g>
        <path class="cls-1" d="M386.5,200.5H726.4l69.6-80H386.5A40,40,0,1,0,386.5,200.5Z"/>
        <path class="cls-1" d="M234.3,958.2a40,40,0,0,1-30.2-66.3L865.2,132.5A40,40,0,1,1,925.6,185L264.5,944.4A39.9,39.9,0,0,1,234.3,958.2Z"/>
    </symbol>

    <symbol id="svgCheckmark" viewBox="0 0 1077.5 1077.5">
        <!-- <title>Checkmark</title> -->
        <path class="cls-1" d="M431.5,923.9L73.1,673.8a50,50,0,1,1,57.2-82L415.1,790.5l524-601.9a50,50,0,1,1,75.4,65.7Z"/>
    </symbol>

    <symbol id="svgWarning" viewBox="0 0 1077.5 1077.5">
        <!-- <title>Warning</title> -->
        <path class="cls-1" d="M1018.8,1013.3H58.7a40,40,0,0,1-35-59.3L503.7,83.8a40,40,0,0,1,70,0L1053.9,954A40,40,0,0,1,1018.8,1013.3Zm-892.4-80H951.1L538.8,186Z"/>
        <path class="cls-1" d="M538.5,731.5a40,40,0,0,1-40-40v-267a40,40,0,0,1,80,0v267A40,40,0,0,1,538.5,731.5Z"/>
        <circle class="cls-1" cx="538.8" cy="841.1" r="39"/>
    </symbol>

    <symbol id="svgInfo" viewBox="0 0 1077.5 1077.5">
        <!-- <title>Info</title> -->
        <path class="cls-1" d="M499.8,758.9V500.4H438.2V431H577.7V758.9h61.6v69.4H438.2V758.9h61.6ZM488.7,296A46,46,0,0,1,502,263.2q13.3-13.9,33.9-14a46.1,46.1,0,0,1,33.2,13.5,44.5,44.5,0,0,1,14,33.2,45.2,45.2,0,0,1-14,33.4,45.7,45.7,0,0,1-33.2,13.7,45.2,45.2,0,0,1-33.4-14A45.7,45.7,0,0,1,488.7,296Z"/>
        <path class="cls-1" d="M538.8,1030.6A491.9,491.9,0,0,1,347.3,85.6,491.9,491.9,0,0,1,730.2,991.9,488.7,488.7,0,0,1,538.8,1030.6Zm0-903.6C311.7,127,127,311.7,127,538.8S311.7,950.6,538.8,950.6,950.6,765.8,950.6,538.8,765.8,127,538.8,127Z"/>
    </symbol>

    <symbol id="svgFontSize" viewBox="0 0 1077.5 1077.5">
        <!-- <title>Font Size</title> -->
        <path class="cls-1" d="M246.8,805.7H128.9l-15.4,56.2c-3,10.9-5,19.4-5,24.9,0,10.9,7,13.4,25.4,13.4v19.9h-84V900.2c16.9,0,23.4-5.5,30.8-28.3L181.6,541.7h35.8L327.8,864.9c9.9,29.8,15.9,35.3,33.3,35.3v19.9H244.3V900.2c19.4,0,25.9-4,25.9-13.4,0-5-1.5-11.4-4-19.4Zm-8-24.9L186.1,617.8h-1.5L137.4,780.9H238.8Z"/>
        <path class="cls-1" d="M800.7,693H565.8l-30.7,112c-5.9,21.8-9.9,38.6-9.9,49.5,0,21.8,13.9,26.8,50.5,26.8v39.6H408.2V881.3c33.7,0,46.6-10.9,61.4-56.5l201.2-658h71.3l220,644.1c19.8,59.5,31.7,70.4,66.4,70.4v39.6H795.7V881.3c38.6,0,51.5-7.9,51.5-26.8,0-9.9-3-22.8-7.9-38.6Zm-15.9-49.5-105-325h-3l-94.1,325H784.8Z"/>
    </symbol>

    <symbol id="svgPDF" viewBox="0 0 1077.5 1077.5">
        <!-- <title>PDF</title> -->
        <g>
            <path class="cls-1" d="M859.53,277c-20.16-25.07-48-54.77-78.72-83.63-30.46-28.6-61.78-55.11-88.38-74.09C646.44,86.51,625.23,82,611.79,82H329.22c-68.71,0-125.7,56.5-125.7,125.21V877.94c0,68.71,57,124.06,125.7,124.06H775.79A123.53,123.53,0,0,0,899.52,877.94V357.21C899.52,343.28,895.36,321.59,859.53,277Zm-30,239h-503V838h503v39.94C829.52,908,805.9,932,775.79,932H329.22c-30.11,0-55.7-24-55.7-54.06V207.21c0-30.11,25.59-55.21,55.7-55.21H610.53c0.22,0-.13.46,0.27,0.59-0.5,5.68-1.28,11.79-1.28,17.36V298.28c0,28.79,25.83,51.72,54.62,51.72H813.51c3.95,0,7.74.08,12.08-.19,2.81,4.89,2.92,7.94,3.92,9.12V516Zm-21.6,152a3.74,3.74,0,0,1,2.1.86,6,6,0,0,1,1.64,2.34,15.15,15.15,0,0,1,1.05,4.26,66.21,66.21,0,0,1,0,13.18,16.68,16.68,0,0,1-1.05,4.34,5.76,5.76,0,0,1-1.64,2.37,3.25,3.25,0,0,1-2.1.66h-52.4v63.46a4,4,0,0,1-.67,2.5,5.69,5.69,0,0,1-2.77,1.77,25,25,0,0,1-5.29,1.12,89,89,0,0,1-16.73,0,24.07,24.07,0,0,1-5.32-1.12,5.51,5.51,0,0,1-2.6-1.77,3.69,3.69,0,0,1-.63-2.5V605.34c0-3.85.76-6.85,2.73-8.56a10.34,10.34,0,0,1,7.07-2.78h80a3.56,3.56,0,0,1,2.1.94,6.6,6.6,0,0,1,1.64,2.47,16.34,16.34,0,0,1,1.05,4.46,58.59,58.59,0,0,1,.33,6.73,56.57,56.57,0,0,1-.33,6.65,14.88,14.88,0,0,1-1.05,4.28,7.67,7.67,0,0,1-1.64,2.53,3.32,3.32,0,0,1-2.1.95H755.52v45h52.4Zm-115.23,8.95q0,23.39-6.11,40T669,744.09c-7.62,7-16.88,11.93-27.79,15.21s-23.89,4.7-39,4.7H561.7a10.51,10.51,0,0,1-7.26-2.34c-2-1.71-2.92-4.26-2.92-8.12V605.34c0-3.85,1-6.85,2.92-8.56A10.83,10.83,0,0,1,561.7,594h43.62c15.15,0,28,2,38.56,5.54a70.06,70.06,0,0,1,26.67,15.88A67.86,67.86,0,0,1,687,641.29C690.81,651.54,692.69,663.46,692.69,676.95Zm-168-30.88a67.19,67.19,0,0,1-4.47,25.36,48.93,48.93,0,0,1-13,18.59c-5.7,5-12.68,8.64-21,11.27S468.19,705,457,705H442.52v54.72a3.53,3.53,0,0,1-.71,2.36,5.73,5.73,0,0,1-2.76,1.71,27,27,0,0,1-5.22,1.05,88.94,88.94,0,0,1-16.73,0,27.51,27.51,0,0,1-5.32-1.05,5,5,0,0,1-2.62-1.71,3.73,3.73,0,0,1-.65-2.36V606.79c0-4.12.93-7.42,3.08-9.48a11.54,11.54,0,0,1,8.34-3.31H460c4,0,7.86.37,11.5,0.68a125.44,125.44,0,0,1,13.07,2.08A58.09,58.09,0,0,1,500,602.4a46,46,0,0,1,13.33,10.34,43.1,43.1,0,0,1,8.41,14.6A57.1,57.1,0,0,1,524.65,646.07Z"/>
            <path class="cls-1" d="M645.06,637.66A41.54,41.54,0,0,0,629,626c-6.53-2.85-15.09-4-25.69-4H585.52V737h18.36c9.46,0,17.43-1.16,23.91-3.62A39.91,39.91,0,0,0,644,722.31a47.86,47.86,0,0,0,9.72-18.44A92.31,92.31,0,0,0,657,678.12a85.28,85.28,0,0,0-2.83-22.46A47.86,47.86,0,0,0,645.06,637.66Z"/>
            <path class="cls-1" d="M477.61,625.31a25.82,25.82,0,0,0-9.66-3.54,74,74,0,0,0-10.45-.78h-15v58H458.3a37.34,37.34,0,0,0,13.86-2.34,23.79,23.79,0,0,0,9.13-6.29,27.15,27.15,0,0,0,5.39-9.62,38.73,38.73,0,0,0,1.84-12.17q0-8.93-3.15-14.72A21.81,21.81,0,0,0,477.61,625.31Z"/>
        </g>
    </symbol>

    <symbol id="svgCategory" viewBox="0 0 1077.5 1077.5">
        <!-- <title>Category</title> -->
        <path class="cls-1" d="M554.45,87.56L234.29,89.64l2.07,319.13L746.15,911.95l318-321.68ZM427,278.86a44.37,44.37,0,1,1-.41-62.74A44.37,44.37,0,0,1,427,278.86Z"/>
        <polygon class="cls-1" points="184.14 461.68 162.22 440.05 162.02 409.25 160.55 183.2 47.35 183.93 49.42 503.06 559.21 1006.24 646.45 918 184.14 461.68"/>
    </symbol>

    <symbol id="svgProduct" viewBox="0 0 1077.5 1077.5">
        <!-- <title>Product</title> -->
        <path class="cls-1" d="M1020.7,536.72c0,81.17-.1,162.33.16,243.5,0,7.28-2.08,11.16-8.72,14.58Q786.57,911,561.31,1027.85c-6.06,3.14-10.66,2.88-16.63,0Q305.26,912.26,65.62,797.17c-6.71-3.22-9-7.11-9-14.45q-0.17-245.61-.94-491.23c0-7.1,2.16-10.39,8.51-13.34q235-108.87,469.71-218.29c7.35-3.42,13.23-3.37,20.57.12q227.24,108,454.79,215.26c9,4.26,11.75,9.3,11.7,19.06C1020.52,375.1,1020.7,455.91,1020.7,536.72ZM525.39,975c0.23-3.79.54-6.54,0.54-9.3q0-228.06.12-456.12c0-7.06-2.13-10.38-8.66-13.26Q312.48,405.91,107.79,315c-3.4-1.51-6.89-2.82-11.2-4.57-0.36,3.75-.78,6.11-0.78,8.46q-0.08,220.65-.22,441.3c0,6.64,2.33,10,8.2,12.82Q310,872,516.13,971.27C518.89,972.59,521.81,973.58,525.39,975Zm40.14,2.43c4.46-1.92,7.36-3,10.1-4.37Q774.21,872.61,972.84,772.21c6.23-3.14,8.44-6.68,8.43-13.72q-0.32-221.27-.17-442.55c0-3.1-.27-6.2-0.48-10.67-4.41,1.79-7.95,3.08-11.36,4.64-37.8,17.33-75.48,34.91-113.43,51.87-7.34,3.28-9.43,7.4-9.4,15.16,0.29,67.4,0,134.81.33,202.22,0,7.91-2.58,11.9-9.51,15.31-32.88,16.2-65.5,32.9-98.21,49.43-8.07,4.08-16.13,8.18-26.16,13.26V429c-5.31,2.22-8.86,3.52-12.24,5.15-42.19,20.42-84.26,41.07-126.6,61.17-7.25,3.44-9.17,7.72-9.15,15.4q0.58,227.62.65,455.25C565.53,969.36,565.53,972.73,565.53,977.46ZM132.18,289c4.79,2.44,7.48,4,10.31,5.23Q339.33,379.24,536.3,464c4.36,1.87,11.2,1.55,15.48-.57,42-20.77,83.68-42.14,125.43-63.39,2.56-1.3,4.88-3.07,8.3-5.25-4.29-2.1-7.07-3.58-9.94-4.86Q503.7,313.68,331.79,237.48c-13.51-6-27.13-16.33-40.68-16.31-14,0-28,10-41.83,16.08C210.92,254.05,172.66,271.06,132.18,289Zm286.46-131.6c4.27,2.22,6.69,3.63,9.22,4.77q195,88.19,390.19,176.09c4,1.8,10.42,1.37,14.48-.58,32.11-15.37,63.92-31.35,95.8-47.18,3-1.48,5.84-3.22,9.92-5.49-4.3-2.23-7-3.79-9.87-5.1C806.77,223.84,685,168.27,563.76,111.35c-17.74-8.33-31.39-8.87-48.68.3C484.34,128,452.2,141.64,418.63,157.35Z"/>
    </symbol>

</svg>